<svg xmlns="http://www.w3.org/2000/svg" viewBox="0 0 1024 1024">
  <defs>
    <linearGradient id="bg" x1="0" y1="0" x2="1" y2="1">
      <stop offset="0" stop-color="#1f4ea0"/>
      <stop offset="1" stop-color="#0f8f7c"/>
    </linearGradient>
    <filter id="shadow" x="-20%" y="-20%" width="140%" height="140%">
      <feDropShadow dx="0" dy="22" stdDeviation="24" flood-color="#10233f" flood-opacity="0.28"/>
    </filter>
  </defs>
  <rect x="64" y="64" width="896" height="896" rx="208" fill="url(#bg)"/>
  <circle cx="384" cy="394" r="224" fill="#f8fafc" filter="url(#shadow)"/>
  <path d="M384 170c-48 66-70 138-65 216 6 87 47 159 123 216" fill="none" stroke="#1f4ea0" stroke-width="42" stroke-linecap="round"/>
  <path d="M190 315c70 33 147 43 230 30 75-12 138-43 190-93" fill="none" stroke="#1f4ea0" stroke-width="42" stroke-linecap="round"/>
  <path d="M216 508c76-33 151-37 226-10 59 21 108 58 147 111" fill="none" stroke="#1f4ea0" stroke-width="42" stroke-linecap="round"/>
  <path d="M474 190c-21 68-18 137 9 206 27 71 78 127 153 168" fill="none" stroke="#1f4ea0" stroke-width="42" stroke-linecap="round"/>
  <g filter="url(#shadow)">
    <path d="M522 598c34-75 124-111 199-78l124 55c34 15 49 55 33 89l-50 112c-15 34-55 49-89 34l-124-55c-75-33-109-122-93-157z" fill="#f8fafc"/>
    <path d="M603 617c15-34 55-49 89-34s49 55 34 89-55 49-89 34-49-55-34-89z" fill="#0f8f7c"/>
    <path d="M791 568l116 51-54 122-116-51z" fill="#ffcf4a"/>
    <path d="M870 604l51 23c22 10 32 36 22 58l-16 36c-10 22-36 32-58 22l-51-23z" fill="#f8fafc"/>
    <path d="M522 598c34-75 124-111 199-78l124 55c34 15 49 55 33 89l-50 112c-15 34-55 49-89 34l-124-55c-75-33-109-122-93-157z" fill="none" stroke="#12345f" stroke-width="34" stroke-linejoin="round"/>
    <path d="M800 786c-32 57-94 92-162 90" fill="none" stroke="#f8fafc" stroke-width="34" stroke-linecap="round"/>
  </g>
</svg>
